<svg width="1004" height="629" viewBox="0 0 1004 629" fill="none" xmlns="http://www.w3.org/2000/svg">
<path d="M950.701 121.212C977.026 121.212 993.365 149.842 979.975 172.507L782.437 506.858C776.32 517.211 765.189 523.563 753.164 523.563H624.877L467.715 520.321C466.105 520.288 464.791 519.02 464.701 517.412L464.097 506.56C462.63 480.258 449.462 455.995 428.209 440.431L420.57 434.837C419.243 433.865 418.913 432.021 419.822 430.649L614.792 136.431C621.09 126.927 631.732 121.212 643.134 121.212H950.701ZM689.83 220.7C686.386 220.7 683.179 222.451 681.315 225.347L572.846 393.947C568.511 400.685 573.348 409.549 581.36 409.549H722.396C725.94 409.549 729.226 407.697 731.06 404.665L833.046 236.065C837.127 229.317 832.268 220.7 824.382 220.7H689.83Z" fill="#5EA4FF"/>
<path d="M373.868 539.317C365.311 550.105 352.348 562.246 335.151 568.45C311.162 577.294 279.091 586.393 246.872 578.098C278.122 594.111 308.064 594.385 342.393 579.956C366.748 569.886 377.261 557.013 381.777 546.352C380.122 545.19 376.812 542.866 373.868 539.317Z" fill="#4945FF"/>
<path d="M369.269 534.606C365.895 530.261 362.092 525.121 359.513 520.346C356.505 514.776 354.722 509.572 352.939 504.368C342.836 504.685 333.593 506.594 326.005 509.664C317.622 513.164 308.443 517.094 299.264 521.023C295.287 523.171 290.88 524.523 286.904 526.671C285.313 527.53 283.356 529.614 280.97 530.903C261.516 542.438 229.746 548.29 205.051 534.904C205.481 535.7 206.34 537.291 205.975 538.516C208.489 541.27 211.369 542.798 214.249 544.326C217.129 545.854 220.439 548.177 224.114 549.276C227.79 550.374 230.67 551.902 234.345 553.001C238.02 554.099 240.9 555.627 244.146 555.93C247.391 556.233 251.067 557.331 254.312 557.634C257.558 557.937 260.804 558.24 262.824 558.176C268.52 559.211 273.356 558.655 276.172 558.162C279.418 558.465 281.438 558.401 281.438 558.401C281.438 558.401 279.418 558.465 276.602 558.958C273.356 558.655 268.95 560.007 263.254 558.972C260.008 558.669 257.192 559.162 253.947 558.859C250.701 558.557 247.456 558.254 244.21 557.951C240.964 557.648 237.289 556.55 233.614 555.451C229.938 554.353 226.263 553.255 222.587 552.156C218.912 551.058 215.602 548.734 211.927 547.635C211.497 546.84 210.272 546.473 209.842 545.678C211.991 549.656 213.71 552.839 216.225 555.593C256.801 585.069 301.727 573.14 332.509 561.654C348.91 555.879 361.508 544.964 369.269 534.606Z" fill="#4945FF"/>
<path d="M398.974 540.148L402.585 539.225L448.973 522.394L449.769 521.965C453.745 519.817 456.402 497.692 443.51 473.82C431.047 450.744 411.63 441.836 407.653 443.984L406.858 444.414L365.389 476.06C362.702 480.595 363.58 495.538 373.035 513.044C381.694 530.979 393.708 539.908 398.974 540.148Z" fill="#4945FF"/>
<path d="M304.877 506.686C303.716 508.341 301.76 510.425 300.599 512.08C308.187 509.01 316.14 504.714 323.728 501.644C331.317 498.574 340.56 496.665 351.457 495.919C350.534 492.306 350.04 489.489 349.912 485.447C320.765 484.744 313.369 493.877 304.877 506.686Z" fill="#4945FF"/>
<path d="M282 7.64118C285.571 2.83387 291.207 0 297.195 0H613.976C629.301 0 638.274 17.2614 629.468 29.8048L541.272 155.441C536.222 162.634 526.886 165.405 518.73 162.132L377.044 105.273C369.429 102.217 360.713 104.414 355.458 110.715L342.188 126.624C333.961 136.487 337.736 151.506 349.649 156.306L482.68 209.911C493.954 214.454 498.086 228.295 491.147 238.275L442.41 308.366L380.451 400.113C376.931 405.325 371.053 408.449 364.764 408.449H35.3872C20.2651 408.449 11.2482 391.592 19.6418 379.013L118.243 231.248C123.117 223.944 132.373 220.951 140.6 224.018L311.819 287.846C319.896 290.857 328.987 288.03 333.933 280.97L338.381 274.623C345.121 265.002 341.562 251.629 330.932 246.631L184.033 177.563C173.21 172.474 169.76 158.748 176.891 149.147L213.281 100.147L282 7.64118Z" fill="#4945FF"/>
</svg>
